<?xml version="1.0" standalone="no"?>
<!DOCTYPE svg PUBLIC "-//W3C//DTD SVG 20010904//EN"
 "http://www.w3.org/TR/2001/REC-SVG-20010904/DTD/svg10.dtd">
<svg version="1.0" xmlns="http://www.w3.org/2000/svg"
 width="1013.000000pt" height="311.000000pt" viewBox="0 0 1013.000000 311.000000"
 preserveAspectRatio="xMidYMid meet">
<metadata>
Created by potrace 1.16, written by Peter Selinger 2001-2019
</metadata>
<g transform="translate(0.000000,311.000000) scale(0.100000,-0.100000)"
fill="#000000" stroke="none">
<path d="M435 2688 c-3 -7 -4 -485 -3 -1063 l3 -1050 1190 0 1190 0 3 1063 2
1062 -1190 0 c-943 0 -1192 -3 -1195 -12z m2345 -1058 l0 -1010 -1153 2 -1152
3 -3 995 c-1 547 0 1001 3 1008 3 9 244 12 1154 12 l1151 0 0 -1010z"/>
<path d="M509 2596 c-2 -2 -3 -439 -1 -970 l2 -966 1120 0 1120 0 0 970 0 970
-1118 0 c-615 0 -1121 -2 -1123 -4z m834 -266 c138 0 227 -4 227 -10 0 -5 -33
-10 -72 -12 l-73 -3 0 -330 0 -330 203 0 203 0 2 333 2 332 -72 0 c-42 0 -73
4 -73 10 0 6 115 10 325 10 210 0 325 -4 325 -10 0 -6 -33 -10 -80 -10 l-80 0
0 -685 0 -685 80 0 c47 0 80 -4 80 -10 0 -6 -115 -10 -325 -10 -210 0 -325 4
-325 10 0 6 31 10 73 10 l72 0 -2 307 c-2 170 -3 323 -3 341 l0 32 -202 -2
-203 -3 -3 -338 -2 -337 75 0 c43 0 75 -4 75 -10 0 -6 -117 -10 -330 -10 -213
0 -330 4 -330 10 0 6 35 10 85 10 l85 0 0 685 0 685 -85 0 c-47 0 -85 4 -85 9
0 13 62 20 140 15 36 -2 167 -4 293 -4z"/>
<path d="M8340 2379 c-36 -10 -114 -24 -175 -30 -60 -6 -112 -13 -114 -15 -3
-2 5 -14 17 -27 12 -12 29 -43 39 -67 16 -41 18 -99 21 -649 3 -662 1 -693
-49 -735 -16 -14 -29 -27 -29 -30 0 -3 99 -6 220 -6 121 0 220 3 220 8 0 4 -9
13 -20 19 -11 7 -27 27 -37 45 -17 31 -18 82 -18 771 0 405 -2 736 -5 736 -3
-1 -34 -10 -70 -20z"/>
<path d="M7600 2289 c-36 -10 -114 -24 -175 -30 -60 -7 -111 -13 -113 -14 -2
-2 8 -15 23 -31 14 -15 33 -52 43 -83 15 -50 17 -113 17 -616 0 -612 0 -614
-58 -667 l-29 -28 226 0 227 0 -35 35 c-21 20 -38 50 -43 72 -10 48 -11 1271
-1 1336 9 54 12 53 -82 26z"/>
<path d="M3710 1874 c-103 -28 -185 -88 -250 -186 -52 -78 -80 -170 -87 -288
-13 -221 51 -398 184 -506 76 -62 243 -118 243 -82 0 8 -11 20 -24 26 -31 14
-72 98 -93 192 -14 61 -17 124 -17 330 0 231 2 262 22 335 25 87 60 150 92
160 25 8 27 35 3 34 -10 0 -43 -7 -73 -15z"/>
<path d="M3880 1885 c0 -4 18 -25 39 -46 72 -69 101 -213 101 -492 -1 -285
-30 -427 -102 -499 -21 -21 -38 -41 -38 -44 0 -15 102 10 167 42 168 81 263
261 263 499 0 294 -148 499 -388 540 -23 4 -42 4 -42 0z"/>
<path d="M6550 1876 c-78 -21 -123 -48 -186 -111 -102 -101 -154 -247 -154
-427 1 -161 47 -298 135 -396 93 -104 200 -147 344 -140 112 6 173 32 241 104
46 48 110 160 110 192 0 17 -25 15 -41 -4 -33 -40 -91 -59 -184 -59 -78 0 -97
4 -141 27 -133 70 -194 202 -194 418 0 175 39 304 110 363 53 45 40 55 -40 33z"/>
<path d="M6700 1883 c0 -5 14 -22 30 -38 17 -16 37 -51 46 -80 18 -59 30 -217
20 -269 -7 -34 -9 -36 -45 -36 -96 0 -191 -13 -191 -26 0 -11 43 -14 230 -14
l230 0 6 26 c13 52 -5 175 -35 239 -39 84 -82 129 -154 164 -66 32 -137 49
-137 34z"/>
<path d="M9118 1875 c-95 -26 -185 -97 -246 -193 -113 -177 -114 -498 -2 -673
44 -67 131 -146 197 -177 53 -24 69 -27 173 -27 105 0 120 3 172 28 86 42 169
146 198 247 11 37 0 38 -45 4 -72 -55 -194 -69 -288 -34 -66 25 -137 92 -172
163 -80 165 -69 443 25 590 16 26 37 50 45 53 18 7 20 34 3 33 -7 0 -34 -7
-60 -14z"/>
<path d="M9280 1878 c0 -7 9 -19 21 -26 44 -28 63 -96 67 -249 l4 -143 -48 0
c-99 0 -184 -12 -184 -26 0 -11 43 -14 230 -14 l230 0 0 88 c0 131 -33 214
-116 294 -59 56 -204 110 -204 76z"/>
<path d="M4480 1862 c0 -5 11 -14 24 -20 14 -6 36 -30 49 -54 14 -24 101 -251
193 -506 l169 -463 54 3 54 3 44 130 43 130 -105 305 c-57 168 -107 323 -111
346 -7 48 14 99 46 109 58 19 1 25 -220 25 -132 0 -240 -4 -240 -8z"/>
<path d="M5100 1861 c0 -5 9 -11 19 -14 29 -7 73 -75 100 -153 l24 -70 -56
-194 c-36 -127 -53 -200 -47 -210 10 -18 9 -22 75 188 l49 153 76 -218 c42
-120 100 -287 129 -371 l54 -153 56 3 55 3 44 138 43 138 -100 303 c-116 347
-122 386 -71 429 17 14 30 28 30 31 0 3 -108 6 -240 6 -132 0 -240 -4 -240 -9z"/>
<path d="M5740 1863 c1 -5 15 -17 32 -28 94 -60 98 -122 24 -389 -35 -129 -52
-205 -46 -215 5 -10 29 50 75 194 78 243 120 338 175 397 22 22 40 43 40 45 0
1 -67 3 -150 3 -82 0 -150 -3 -150 -7z"/>
</g>
</svg>
